# xmcd
#
# Track frame offsets:
#	150
#	12253
#	24616
#	36360
#	47030
#	58731
#	71177
#	83081
#	94374
#	105971
#	116485
#	128206
#	139162
#	150801
#	164176
#	176247
#	190382
#	202608
#	213643
#	223623
#	235097
#	247161
#	258279
#	269907
#	284408
#
# Disc length: 3910 seconds
#
# Revision: 0
# Processed by: cddbd v1.5.2PL0 Copyright (c) Steve Scherf et al.
# Submitted via: dBpowerAMP V4.0
#
DISCID=7d0f4419
DTITLE=Eddy Arnold - Essential Gold Bouquet Of Roses
DYEAR=2006
DGENRE=Country
TTITLE0=I'll Hold You In My Heart (Till I Can Hold You In My Arms)
TTITLE1=Just A Little Lovin'
TTITLE2=Bouquet Of Roses
TTITLE3=Cuddle Buggin' Baby
TTITLE4=I Really Don't Want To Know
TTITLE5=When My Blue Moon Turns To Gold Again
TTITLE6=I'm Throwing Rice (At The Girl I Love)
TTITLE7=A Full Time Job
TTITLE8=Kentucky Waltz
TTITLE9=Eddy's Song
TTITLE10=Don't Rob Another Man's Castle
TTITLE11=It's A Sin
TTITLE12=A Heartful Of Love (For A Handful Of Kisses)
TTITLE13=How's The World Treating You
TTITLE14=Texarkana Baby
TTITLE15=I'm Thinging Tonight Of My Blue Eyes
TTITLE16=The Prisoner's Song
TTITLE17=The Love Bug Itch
TTITLE18=I Wanna Play House With You
TTITLE19=Little Angel With The Dirty Face
TTITLE20=There's Not A Thing (I Wouldn't Do For You
TTITLE21=I'd Trade All My Tomorrows (For Just One Yesterday)
TTITLE22=Roll Along Kentucky Moon
TTITLE23=Rockin' Alone (in An Old Rocking Chair
TTITLE24=Hep Cat Baby
EXTD=
EXTT0=
EXTT1=
EXTT2=
EXTT3=
EXTT4=
EXTT5=
EXTT6=
EXTT7=
EXTT8=
EXTT9=
EXTT10=
EXTT11=
EXTT12=
EXTT13=
EXTT14=
EXTT15=
EXTT16=
EXTT17=
EXTT18=
EXTT19=
EXTT20=
EXTT21=
EXTT22=
EXTT23=
EXTT24=
PLAYORDER=
